<?xml version="1.0" encoding="UTF-8" standalone="no"?>
<!-- Created with Inkscape (http://www.inkscape.org/) -->

<svg
   width="210mm"
   height="297mm"
   viewBox="0 0 210 297"
   version="1.1"
   id="svg1"
   inkscape:version="1.2.2 (b0a8486541, 2022-12-01)"
   sodipodi:docname="logo_grupo2.svg"
   xmlns:inkscape="http://www.inkscape.org/namespaces/inkscape"
   xmlns:sodipodi="http://sodipodi.sourceforge.net/DTD/sodipodi-0.dtd"
   xmlns:xlink="http://www.w3.org/1999/xlink"
   xmlns="http://www.w3.org/2000/svg"
   xmlns:svg="http://www.w3.org/2000/svg">
  <sodipodi:namedview
     id="namedview1"
     pagecolor="#ffffff"
     bordercolor="#000000"
     borderopacity="0.25"
     inkscape:showpageshadow="2"
     inkscape:pageopacity="0.0"
     inkscape:pagecheckerboard="0"
     inkscape:deskcolor="#d1d1d1"
     inkscape:document-units="mm"
     inkscape:zoom="0.5"
     inkscape:cx="-8"
     inkscape:cy="568"
     inkscape:window-width="1919"
     inkscape:window-height="1013"
     inkscape:window-x="1"
     inkscape:window-y="0"
     inkscape:window-maximized="1"
     inkscape:current-layer="layer1"
     showgrid="false"
     showguides="true" />
  <defs
     id="defs1">
    <pattern
       inkscape:collect="always"
       patternUnits="userSpaceOnUse"
       width="2"
       height="1"
       patternTransform="translate(0,0) scale(10,10)"
       id="Strips1_1"
       inkscape:stockid="Stripes 1:1">
      <rect
         style="fill:black;stroke:none"
         x="0"
         y="-0.5"
         width="1"
         height="2"
         id="rect2048" />
    </pattern>
    <rect
       x="308.5"
       y="435.5"
       width="244"
       height="51.499999"
       id="rect232" />
    <linearGradient
       id="linearGradient74"
       inkscape:collect="always">
      <stop
         style="stop-color:#000080;stop-opacity:1;"
         offset="0"
         id="stop74" />
      <stop
         style="stop-color:#000080;stop-opacity:0;"
         offset="1"
         id="stop75" />
    </linearGradient>
    <linearGradient
       inkscape:collect="always"
       xlink:href="#linearGradient74"
       id="linearGradient75"
       x1="168.41405"
       y1="159.78912"
       x2="39.760044"
       y2="253.52055"
       gradientUnits="userSpaceOnUse"
       gradientTransform="translate(-7.253344,-21.099242)" />
    <linearGradient
       inkscape:collect="always"
       xlink:href="#linearGradient74"
       id="linearGradient76"
       x1="106.9416"
       y1="124.62103"
       x2="178.76942"
       y2="145.94914"
       gradientUnits="userSpaceOnUse"
       gradientTransform="translate(-7.253344,-21.099242)" />
    <linearGradient
       inkscape:collect="always"
       xlink:href="#linearGradient74"
       id="linearGradient77"
       x1="90.274696"
       y1="150.18178"
       x2="134.30028"
       y2="206.86964"
       gradientUnits="userSpaceOnUse"
       gradientTransform="translate(-7.253344,-21.099242)" />
    <linearGradient
       inkscape:collect="always"
       xlink:href="#linearGradient74"
       id="linearGradient78"
       x1="110.09502"
       y1="122.89743"
       x2="25.713636"
       y2="213.26125"
       gradientUnits="userSpaceOnUse"
       gradientTransform="translate(-7.253344,-21.099242)" />
  </defs>
  <g
     inkscape:label="Capa 1"
     inkscape:groupmode="layer"
     id="layer1">
    <ellipse
       style="fill:#000080;fill-opacity:1;stroke-width:0.181713"
       id="path3117"
       cx="106.00072"
       cy="240.07556"
       rx="9.1547451"
       ry="4.8712869" />
    <path
       id="path3907"
       style="fill:#8080ff;fill-opacity:1;stroke-width:0.512477"
       d="m 146.16366,214.60066 a 58.371242,57.591717 44.807422 0 1 -82.003473,-1.10135 58.371242,57.591717 44.807422 0 1 -8.39e-4,-81.98869 58.371242,57.591717 44.807422 0 1 2.858967,-2.61328 58.371242,57.591717 44.807422 0 0 -2.858936,2.61188 l 41.001271,-40.443664 41.00222,41.545024 a 58.371242,57.591717 44.807422 0 0 -2.85902,-2.6887 58.371242,57.591717 44.807422 0 1 2.8589,2.69023 58.371242,57.591717 44.807422 0 1 9.4e-4,81.98869 z m -3.66684,-85.37474 a 58.371242,57.591717 44.807422 0 0 -2.39744,-1.9437 58.371242,57.591717 44.807422 0 1 2.39744,1.9437 z m -3.14635,-2.52274 a 58.371242,57.591717 44.807422 0 0 -3.18876,-2.2176 58.371242,57.591717 44.807422 0 1 3.18876,2.2176 z m -3.83787,-2.61627 a 58.371242,57.591717 44.807422 0 0 -2.74569,-1.62283 58.371242,57.591717 44.807422 0 1 2.74569,1.62283 z m -3.75361,-2.16998 a 58.371242,57.591717 44.807422 0 0 -2.97928,-1.47452 58.371242,57.591717 44.807422 0 1 2.97928,1.47452 z m -3.52642,-1.73453 a 58.371242,57.591717 44.807422 0 0 -3.60147,-1.46235 58.371242,57.591717 44.807422 0 1 3.60147,1.46235 z m -4.54078,-1.7913 a 58.371242,57.591717 44.807422 0 0 -2.89856,-0.93275 58.371242,57.591717 44.807422 0 1 2.89856,0.93275 z m -3.91571,-1.22879 a 58.371242,57.591717 44.807422 0 0 -3.77982,-0.91274 58.371242,57.591717 44.807422 0 1 3.77982,0.91274 z m -4.10472,-0.97019 a 58.371242,57.591717 44.807422 0 0 -3.52711,-0.57886 58.371242,57.591717 44.807422 0 1 3.52711,0.57886 z m -4.63205,-0.71472 a 58.371242,57.591717 44.807422 0 0 -3.07058,-0.27053 58.371242,57.591717 44.807422 0 1 3.07058,0.27053 z m -3.95536,-0.33054 a 58.371242,57.591717 44.807422 0 0 -3.84632,-0.0517 58.371242,57.591717 44.807422 0 1 3.84632,0.0517 z m -4.73112,-0.0155 a 58.371242,57.591717 44.807422 0 0 -3.070579,0.18805 58.371242,57.591717 44.807422 0 1 3.070579,-0.18805 z m -4.175502,0.29423 a 58.371242,57.591717 44.807422 0 0 -3.527101,0.48412 58.371242,57.591717 44.807422 0 1 3.527101,-0.48412 z m -3.851996,0.53283 a 58.371242,57.591717 44.807422 0 0 -3.779803,0.81122 58.371242,57.591717 44.807422 0 1 3.779803,-0.81122 z m -4.79695,1.08001 a 58.371242,57.591717 44.807422 0 0 -2.898546,0.8549 58.371242,57.591717 44.807422 0 1 2.898546,-0.8549 z m -3.837843,1.15862 a 58.371242,57.591717 44.807422 0 0 -3.60141,1.36561 58.371242,57.591717 44.807422 0 1 3.60141,-1.36561 z m -4.148581,1.61092 a 58.371242,57.591717 44.807422 0 0 -2.97923,1.39449 58.371242,57.591717 44.807422 0 1 2.97923,-1.39449 z m -3.987159,1.91457 a 58.371242,57.591717 44.807422 0 0 -2.745663,1.54908 58.371242,57.591717 44.807422 0 1 2.745663,-1.54908 z m -3.394738,1.93031 a 58.371242,57.591717 44.807422 0 0 -3.188746,2.13194 58.371242,57.591717 44.807422 0 1 3.188746,-2.13194 z m -3.937632,2.69088 a 58.371242,57.591717 44.807422 0 0 -2.397393,1.87931 58.371242,57.591717 44.807422 0 1 2.397393,-1.87931 z" />
    <g
       id="g78"
       transform="matrix(1,0,0,-1,5.9622023,287.33042)"
       inkscape:label="fondo">
      <path
         d="m 80.494788,86.249753 c -2.996421,0.0173 -5.970194,0.51856 -8.805147,1.48415 -10.732159,3.62149 -18.161982,13.385697 -18.753377,24.645517 -0.04582,0.51851 -0.08286,1.03777 -0.111105,1.55753 -0.0081,0.10746 -0.01588,0.21495 -0.02325,0.32246 -1.34e-4,25.4699 20.6477,46.11774 46.117604,46.1176 0.5334,-0.0288 1.06627,-0.0669 1.598347,-0.1142 -12.090294,-0.11666 -22.690977,-8.10506 -26.135356,-19.69493 -0.572737,-1.86583 -0.945529,-3.7873 -1.112077,-5.73195 -0.474412,-6.90724 1.670068,-13.73995 6.006352,-19.13733 3.073925,-3.83993 7.120174,-6.78664 11.718148,-8.53384 1.698125,-0.64041 3.455416,-1.11141 5.246196,-1.40612 0.9433,-0.33136 1.93538,-0.5046 2.93574,-0.51263 0.50045,0.005 0.999637,0.051 1.492407,0.13798 4.01725,0.67157 7.08619,3.93416 7.4936,7.96643 -0.0407,-2.45513 -0.41125,-4.89383 -1.10174,-7.25123 -1.42915,-4.88674 -4.19131,-9.283977 -7.979877,-12.703617 -5.08918,-4.5947 -11.71429,-7.14181 -18.586461,-7.14582 z"
         style="fill:url(#linearGradient78);stroke:#000000;stroke-width:0.2;stroke-linejoin:bevel;stroke-dasharray:0, 2.2;stroke-dashoffset:0"
         id="path74" />
      <path
         d="m 96.241113,105.75864 c -1.79079,0.29471 -3.548062,0.76571 -5.24619,1.40612 -4.597984,1.7472 -8.644217,4.6939 -11.718148,8.53384 -4.336293,5.3974 -6.480765,12.23008 -6.006352,19.13733 0.166548,1.94465 0.539339,3.86612 1.112077,5.73195 3.444379,11.58987 14.045062,19.57827 26.13535,19.69493 2.6335,-0.10189 5.25348,-0.42935 7.83105,-0.97876 19.68172,-4.15391 34.40082,-20.58575 36.37194,-40.60424 -1.77222,9.39225 -8.28731,17.19435 -17.21291,20.61322 -3.13696,1.21307 -6.46967,1.84132 -9.83299,1.85363 -6.8281,-0.0265 -13.40309,-2.58844 -18.448997,-7.18871 -3.48657,-3.15521 -6.107287,-7.15061 -7.612454,-11.60549 -0.79641,-2.40809 -1.256375,-4.91468 -1.366841,-7.44864 -0.04389,-0.22115 -0.0794,-0.44386 -0.106454,-0.66766 0.0096,-0.0649 0.01996,-0.12965 0.03101,-0.1943 0.08778,-3.75061 2.507506,-7.05266 6.069919,-8.28322 z"
         style="fill:url(#linearGradient77);stroke:#000000;stroke-width:0.2;stroke-linejoin:bevel;stroke-dasharray:0, 2.2;stroke-dashoffset:0"
         id="path73" />
      <path
         d="m 98.919503,68.141823 c -0.29458,0.0182 -0.58898,0.0392 -0.88315,0.063 11.739857,0.0326 22.168787,7.50349 25.976707,18.60868 0.78427,2.20113 1.28526,4.49317 1.49086,6.82078 0.50434,6.916877 -1.6194,13.769577 -5.94692,19.188997 -3.28013,4.11031 -7.66848,7.19571 -12.64626,8.89145 -2.21949,0.75682 -4.52658,1.22709 -6.86521,1.3994 -0.0489,-5.6e-4 -0.0978,-0.001 -0.146757,-0.002 -0.239,0.0476 -0.47984,0.0855 -0.72192,0.11369 -0.2904,-0.0315 -0.5791,-0.0771 -0.86507,-0.13643 -4.31495,-0.44861 -7.70049,-3.8847 -8.065135,-8.18554 0.110466,2.53397 0.570429,5.04054 1.366841,7.44864 1.505167,4.45489 4.125884,8.45028 7.612454,11.60549 5.045917,4.60028 11.620877,7.16223 18.448997,7.18871 3.36333,-0.0123 6.69602,-0.64056 9.83299,-1.85363 8.9256,-3.41887 15.44069,-11.22097 17.21291,-20.61322 0.17602,-1.46754 0.28139,-2.94273 0.31574,-4.4204 -10e-4,-2.19488 -0.15934,-4.38691 -0.47284,-6.55929 C 141.30191,84.999013 121.85378,68.143983 98.919503,68.141843 Z"
         style="fill:url(#linearGradient76);stroke:#000000;stroke-width:0.2;stroke-linejoin:bevel;stroke-dasharray:0, 2.2;stroke-dashoffset:0"
         id="path72" />
      <path
         d="m 98.036353,68.204863 c -1.31253,0.0377 -2.62288,0.13155 -3.92741,0.28112 -22.695009,2.42654 -40.201377,21.08976 -41.172679,43.893437 0.591395,-11.25982 8.021218,-21.024027 18.753377,-24.645517 2.834947,-0.96559 5.808732,-1.46683 8.805147,-1.48415 6.872157,0.004 13.497285,2.55113 18.586455,7.14582 3.788557,3.41964 6.550727,7.816887 7.979877,12.703617 0.69048,2.3574 1.06102,4.79611 1.10174,7.25123 0.0313,0.29425 0.0481,0.58985 0.0501,0.88574 -0.035,0.35422 -0.091,0.70607 -0.16795,1.05368 -0.53347,4.18635 -3.92201,7.44011 -8.146267,7.82226 0.0489,8.2e-4 0.0978,0.002 0.146757,0.002 2.33864,-0.17231 4.64572,-0.64258 6.86521,-1.3994 4.97779,-1.69574 9.36613,-4.78113 12.64626,-8.89145 4.32753,-5.41943 6.45126,-12.27211 5.94692,-19.188997 -0.2056,-2.32762 -0.70659,-4.61965 -1.49086,-6.82078 -3.80789,-11.10511 -14.23682,-18.57599 -25.976677,-18.60861 z"
         style="fill:url(#linearGradient75);stroke:#000000;stroke-width:0.2;stroke-linejoin:bevel;stroke-dasharray:0, 2.2;stroke-dashoffset:0"
         id="path71" />
    </g>
    <text
       xml:space="preserve"
       transform="matrix(1.7920694,0,0,1.7920694,-460.08635,-647.00685)"
       id="text230"
       style="font-size:40px;white-space:pre;shape-inside:url(#rect232);fill:url(#Strips1_1);fill-opacity:1"
       inkscape:label="infynixapp"><tspan
         x="308.5"
         y="471.89501"
         id="tspan395"><tspan
           style="font-family:'Kunstler Script';-inkscape-font-specification:'Kunstler Script';fill:#ffffff"
           id="tspan393">I</tspan></tspan></text>
  </g>
</svg>
