<?xml version="1.0" encoding="UTF-8" standalone="no"?>
<!-- Created with Inkscape (http://www.inkscape.org/) -->

<svg
   width="210mm"
   height="297mm"
   viewBox="0 0 210 297"
   version="1.1"
   id="svg1"
   inkscape:version="1.3.2 (091e20e, 2023-11-25, custom)"
   sodipodi:docname="logo_grupo.svg"
   xmlns:inkscape="http://www.inkscape.org/namespaces/inkscape"
   xmlns:sodipodi="http://sodipodi.sourceforge.net/DTD/sodipodi-0.dtd"
   xmlns:xlink="http://www.w3.org/1999/xlink"
   xmlns="http://www.w3.org/2000/svg"
   xmlns:svg="http://www.w3.org/2000/svg">
  <sodipodi:namedview
     id="namedview1"
     pagecolor="#ffffff"
     bordercolor="#000000"
     borderopacity="0.25"
     inkscape:showpageshadow="2"
     inkscape:pageopacity="0.0"
     inkscape:pagecheckerboard="0"
     inkscape:deskcolor="#d1d1d1"
     inkscape:document-units="mm"
     inkscape:zoom="2"
     inkscape:cx="405.25"
     inkscape:cy="548.75"
     inkscape:window-width="1920"
     inkscape:window-height="1017"
     inkscape:window-x="-8"
     inkscape:window-y="-8"
     inkscape:window-maximized="1"
     inkscape:current-layer="layer1" />
  <defs
     id="defs1">
    <linearGradient
       id="linearGradient74"
       inkscape:collect="always">
      <stop
         style="stop-color:#000080;stop-opacity:1;"
         offset="0"
         id="stop74" />
      <stop
         style="stop-color:#000080;stop-opacity:0;"
         offset="1"
         id="stop75" />
    </linearGradient>
    <linearGradient
       inkscape:collect="always"
       xlink:href="#linearGradient74"
       id="linearGradient75"
       x1="168.41405"
       y1="159.78912"
       x2="39.760044"
       y2="253.52055"
       gradientUnits="userSpaceOnUse"
       gradientTransform="translate(-0.37417734,11.973675)" />
    <linearGradient
       inkscape:collect="always"
       xlink:href="#linearGradient74"
       id="linearGradient76"
       x1="106.9416"
       y1="124.62103"
       x2="178.76942"
       y2="145.94914"
       gradientUnits="userSpaceOnUse"
       gradientTransform="translate(-0.37417734,11.973675)" />
    <linearGradient
       inkscape:collect="always"
       xlink:href="#linearGradient74"
       id="linearGradient77"
       x1="90.274696"
       y1="150.18178"
       x2="134.30028"
       y2="206.86964"
       gradientUnits="userSpaceOnUse"
       gradientTransform="translate(-0.37417734,11.973675)" />
    <linearGradient
       inkscape:collect="always"
       xlink:href="#linearGradient74"
       id="linearGradient78"
       x1="110.09502"
       y1="122.89743"
       x2="25.713636"
       y2="213.26125"
       gradientUnits="userSpaceOnUse"
       gradientTransform="translate(-0.37417734,11.973675)" />
  </defs>
  <g
     inkscape:label="Capa 1"
     inkscape:groupmode="layer"
     id="layer1">
    <g
       id="g78"
       transform="translate(3.7417733,-5.61266)">
      <path
         d="m 87.373955,119.32267 c -2.996421,0.0173 -5.970194,0.51856 -8.805147,1.48415 -10.732159,3.62149 -18.161982,13.3857 -18.753377,24.64552 -0.04582,0.51851 -0.08286,1.03777 -0.111105,1.55753 -0.0081,0.10746 -0.01588,0.21495 -0.02325,0.32246 -1.34e-4,25.4699 20.6477,46.11774 46.117604,46.1176 0.5334,-0.0288 1.06627,-0.0669 1.59835,-0.1142 -12.090297,-0.11666 -22.69098,-8.10506 -26.135359,-19.69493 -0.572737,-1.86583 -0.945529,-3.7873 -1.112077,-5.73195 -0.474412,-6.90724 1.670068,-13.73995 6.006352,-19.13733 3.073925,-3.83993 7.120174,-6.78664 11.718148,-8.53384 1.698125,-0.64041 3.455416,-1.11141 5.246196,-1.40612 0.9433,-0.33136 1.93538,-0.5046 2.93574,-0.51263 0.50045,0.005 0.99964,0.051 1.49241,0.13798 4.01725,0.67157 7.08619,3.93416 7.4936,7.96643 -0.0407,-2.45513 -0.41125,-4.89383 -1.10174,-7.25123 -1.42915,-4.88674 -4.19131,-9.28398 -7.97988,-12.70362 -5.08918,-4.5947 -11.71429,-7.14181 -18.586461,-7.14582 z"
         style="fill:url(#linearGradient78);stroke:#000000;stroke-width:0.2;stroke-linejoin:bevel;stroke-dasharray:0, 2.2;stroke-dashoffset:0"
         id="path74" />
      <path
         d="m 103.12028,138.83156 c -1.79079,0.29471 -3.548062,0.76571 -5.24619,1.40612 -4.597984,1.7472 -8.644217,4.6939 -11.718148,8.53384 -4.336293,5.3974 -6.480765,12.23008 -6.006352,19.13733 0.166548,1.94465 0.539339,3.86612 1.112077,5.73195 3.444379,11.58987 14.045062,19.57827 26.135353,19.69493 2.6335,-0.10189 5.25348,-0.42935 7.83105,-0.97876 19.68172,-4.15391 34.40082,-20.58575 36.37194,-40.60424 -1.77222,9.39225 -8.28731,17.19435 -17.21291,20.61322 -3.13696,1.21307 -6.46967,1.84132 -9.83299,1.85363 -6.8281,-0.0265 -13.40309,-2.58844 -18.449,-7.18871 -3.48657,-3.15521 -6.107287,-7.15061 -7.612454,-11.60549 -0.79641,-2.40809 -1.256375,-4.91468 -1.366841,-7.44864 -0.04389,-0.22115 -0.0794,-0.44386 -0.106454,-0.66766 0.0096,-0.0649 0.01996,-0.12965 0.03101,-0.1943 0.08778,-3.75061 2.507506,-7.05266 6.069919,-8.28322 z"
         style="fill:url(#linearGradient77);stroke:#000000;stroke-width:0.2;stroke-linejoin:bevel;stroke-dasharray:0, 2.2;stroke-dashoffset:0"
         id="path73" />
      <path
         d="m 105.79867,101.21474 c -0.29458,0.0182 -0.58898,0.0392 -0.88315,0.063 11.73986,0.0326 22.16879,7.50349 25.97671,18.60868 0.78427,2.20113 1.28526,4.49317 1.49086,6.82078 0.50434,6.91688 -1.6194,13.76958 -5.94692,19.189 -3.28013,4.11031 -7.66848,7.19571 -12.64626,8.89145 -2.21949,0.75682 -4.52658,1.22709 -6.86521,1.3994 -0.0489,-5.6e-4 -0.0978,-0.001 -0.14676,-0.002 -0.239,0.0476 -0.47984,0.0855 -0.72192,0.11369 -0.2904,-0.0315 -0.5791,-0.0771 -0.86507,-0.13643 -4.31495,-0.44861 -7.70049,-3.8847 -8.065135,-8.18554 0.110466,2.53397 0.570429,5.04054 1.366841,7.44864 1.505167,4.45489 4.125884,8.45028 7.612454,11.60549 5.04592,4.60028 11.62088,7.16223 18.449,7.18871 3.36333,-0.0123 6.69602,-0.64056 9.83299,-1.85363 8.9256,-3.41887 15.44069,-11.22097 17.21291,-20.61322 0.17602,-1.46754 0.28139,-2.94273 0.31574,-4.4204 -0.001,-2.19488 -0.15934,-4.38691 -0.47284,-6.55929 -3.26183,-22.70114 -22.70996,-39.55617 -45.64424,-39.55831 z"
         style="fill:url(#linearGradient76);stroke:#000000;stroke-width:0.2;stroke-linejoin:bevel;stroke-dasharray:0, 2.2;stroke-dashoffset:0"
         id="path72" />
      <path
         d="m 104.91552,101.27778 c -1.31253,0.0377 -2.62288,0.13155 -3.92741,0.28112 -22.695009,2.42654 -40.201377,21.08976 -41.172679,43.89344 0.591395,-11.25982 8.021218,-21.02403 18.753377,-24.64552 2.834947,-0.96559 5.808732,-1.46683 8.805147,-1.48415 6.872157,0.004 13.497285,2.55113 18.586455,7.14582 3.78856,3.41964 6.55073,7.81689 7.97988,12.70362 0.69048,2.3574 1.06102,4.79611 1.10174,7.25123 0.0313,0.29425 0.0481,0.58985 0.0501,0.88574 -0.035,0.35422 -0.091,0.70607 -0.16795,1.05368 -0.53347,4.18635 -3.92201,7.44011 -8.14627,7.82226 0.0489,8.2e-4 0.0978,0.002 0.14676,0.002 2.33864,-0.17231 4.64572,-0.64258 6.86521,-1.3994 4.97779,-1.69574 9.36613,-4.78113 12.64626,-8.89145 4.32753,-5.41943 6.45126,-12.27211 5.94692,-19.189 -0.2056,-2.32762 -0.70659,-4.61965 -1.49086,-6.82078 -3.80789,-11.10511 -14.23682,-18.57599 -25.97668,-18.60861 z"
         style="fill:url(#linearGradient75);stroke:#000000;stroke-width:0.2;stroke-linejoin:bevel;stroke-dasharray:0, 2.2;stroke-dashoffset:0"
         id="path71" />
    </g>
  </g>
</svg>
